<?xml version="1.0" encoding="utf-8"?>
<!-- Generator: Adobe Illustrator 17.0.0, SVG Export Plug-In . SVG Version: 6.00 Build 0)  -->
<!DOCTYPE svg PUBLIC "-//W3C//DTD SVG 1.1//EN" "http://www.w3.org/Graphics/SVG/1.1/DTD/svg11.dtd">
<svg version="1.1" id="Layer_1" xmlns="http://www.w3.org/2000/svg" xmlns:xlink="http://www.w3.org/1999/xlink" x="0px" y="0px"
	 width="128px" height="80px" viewBox="0 0 128 80" enable-background="new 0 0 128 80" xml:space="preserve">
<path fill-rule="evenodd" clip-rule="evenodd" fill="#02aedd" d="M5,0h118c2.761,0,5,2.238,5,5v70c0,2.762-2.239,5-5,5H5
	c-2.761,0-5-2.239-5-5V5C0,2.238,2.239,0,5,0z"/>
<g>
	<g>
		<path fill="#FFFFFF" d="M97.811,40.462l5.489-6.753l4.193-5.159h-12.89l-0.92,1.073l-2.442,2.848l-2.27-2.787l-0.923-1.134H61.345
			l-0.819,1.849l-2.396,5.408l-2.413-5.414l-0.821-1.842H43.101v4.601l-1.151-2.744l-0.8-1.906h-9.612l-0.799,1.91l-7.4,17.705
			L21.506,52.5h11.282l0.753-2.034l0.881-2.381h3.915l0.881,2.381L39.97,52.5h13.575v-1.465l0.632,1.465h7.94l0.178-0.438V52.5
			h25.065l0.917-1.039l2.734-3.099l2.687,3.084l0.918,1.054h12.8l-4.1-5.137L97.811,40.462z M70.272,49.352h-4.9l-0.01-13.041
			l-5.299,13.041h-3.88L50.467,36.11v13.242h-8.37l-1.633-4.415h-8.168l-1.633,4.415H26.17l7.4-17.705h5.55l7.058,16.822V31.696
			h6.738l5.223,11.719l5.191-11.719h6.942V49.352z M95.998,49.352l-4.97-5.705l-5.035,5.705H73.13V31.696h13.476l4.575,5.619
			l4.817-5.619h4.934l-7.11,8.747l7.11,8.909H95.998z M77.418,35.227v3.752h5.921v3.089h-5.921v3.752h6.33l4.658-5.377l-4.047-5.216
			H77.418z M33.743,41.222h5.107l-2.605-5.95L33.743,41.222z"/>
	</g>
</g>
</svg>
